inDegrees=yes
name=ik_S52_A07_T02
DataType=double
version=3
OpenSimVersion=4.3-2021-08-27-4bc7ad9
endheader
time	pelvis_tilt	pelvis_list	pelvis_rotation	pelvis_tx	pelvis_ty	pelvis_tz	hip_flexion_r	hip_adduction_r	hip_rotation_r	knee_angle_r	knee_angle_r_beta	ankle_angle_r	subtalar_angle_r	mtp_angle_r	hip_flexion_l	hip_adduction_l	hip_rotation_l	knee_angle_l	knee_angle_l_beta	ankle_angle_l	subtalar_angle_l	mtp_angle_l	lumbar_extension	lumbar_bending	lumbar_rotation	arm_flex_r	arm_add_r	arm_rot_r	elbow_flex_r	pro_sup_r	wrist_flex_r	wrist_dev_r	arm_flex_l	arm_add_l	arm_rot_l	elbow_flex_l	pro_sup_l	wrist_flex_l	wrist_dev_l
21.89999999999962	-3.790580157949119	-1.291854189384958	17.66485999515112	0	0.9399999999999999	0	38.69023146335773	-10.86601862794305	-10.17616272951307	52.31077076909597	0.912995184176731	0	0	0	38.69023146335773	-10.86601862794305	-10.17616272951307	52.31077076909597	0.912995184176731	0	0	0	-1.556214698964499	-2.408532824958328	3.891697241625678	59.95342474682678	-11.94867249190866	-6.682052329116059	40.13832230713489	113.4000525861196	0	0	26.10443321134967	-9.706135450624714	-12.13437271157874	45.6041443967214	120.2430436102934	0	0
21.91999999999962	-3.766171577057297	-1.29625593083309	17.59969744890381	0	0.9399999999999999	0	38.69206478331586	-10.8651522872811	-10.17604943510927	52.31129507669013	0.9130043350705423	0	0	0	38.69206478331586	-10.8651522872811	-10.17604943510927	52.31129507669013	0.9130043350705423	0	0	0	-1.532208398952816	-2.424175375239998	4.013323705576069	58.85781334473502	-12.28271439466173	-7.077809457930913	41.15209985914773	113.389397639558	0	0	26.06712693481541	-9.700535847831691	-12.07675578671643	45.58459838004703	120.2550216245582	0	0
21.93999999999962	-3.730587218517194	-1.295642152875461	17.31564798806483	0	0.9399999999999999	0	38.6958229345322	-10.86338880638472	-10.17581821781159	52.31237607249717	0.9130232020065754	0	0	0	38.6958229345322	-10.86338880638472	-10.17581821781159	52.31237607249717	0.9130232020065754	0	0	0	-1.493282696038507	-2.442841197558133	4.341980658697396	57.47410923818094	-12.78266250572141	-7.588872123192766	44.64312432586328	113.1905922943037	0	0	26.01182269712417	-9.678461117876655	-12.10968847324679	45.61348239942178	120.3135304225366	0	0
21.95999999999962	-3.695928153583483	-1.316831599714971	17.15331491821615	0	0.9399999999999999	0	38.69993101193674	-10.86144243364765	-10.17556380333267	52.313545491833	0.9130436122243222	0	0	0	38.69993101193674	-10.86144243364765	-10.17556380333267	52.313545491833	0.9130436122243222	0	0	0	-1.463301613332467	-2.480425336296507	4.551729160735015	55.9838942486563	-13.28055171640365	-8.264278232838072	47.00344287826626	112.7999879561972	0	0	25.97070560787309	-9.68929227390759	-12.14016031191126	45.61741173244087	120.4064837556551	0	0
21.97999999999962	-3.69133985393955	-1.318447613471809	16.9555515142309	0	0.9399999999999999	0	38.70333523302489	-10.8598333244464	-10.17535325156327	52.31451553133522	0.9130605426075105	0	0	0	38.70333523302489	-10.8598333244464	-10.17535325156327	52.31451553133522	0.9130605426075105	0	0	0	-1.45545473129742	-2.490515377435829	4.756272714836891	54.37054214791079	-13.87306404202138	-8.898140252892855	49.57252007908496	112.3485570992723	0	0	25.95269167402662	-9.659704437170133	-12.26077857935621	45.6155130993035	120.5278148793679	0	0
21.99999999999962	-3.624746300233991	-1.303411796883613	16.76248294528794	0	0.9399999999999999	0	38.70744171830665	-10.85789393539645	-10.17509934906123	52.31568529790907	0.9130809588857037	0	0	0	38.70744171830665	-10.85789393539645	-10.17509934906123	52.31568529790907	0.9130809588857037	0	0	0	-1.383386267172682	-2.502934642162115	4.995734474060161	52.4391236106901	-14.48608366477767	-9.579350622956294	52.34499734505801	111.8853047503382	0	0	25.79835017620295	-9.623168197634708	-12.35803399219082	45.64469805784221	120.6530933776688	0	0
22.01999999999962	-3.626408007828754	-1.305361980833396	16.54235796401661	0	0.9399999999999999	0	38.71230998123093	-10.85559319471641	-10.17479812332659	52.31706916300549	0.9131051118880398	0	0	0	38.71230998123093	-10.85559319471641	-10.17479812332659	52.31706916300549	0.9131051118880398	0	0	0	-1.381966843946726	-2.510548052265855	5.211226347047503	50.48761147398356	-15.06667892851591	-10.31571294008291	55.25034042749099	111.6614824247656	0	0	25.77294871605671	-9.560959005214837	-12.50324977080045	45.66135728842059	120.7703225726726	0	0
22.03999999999962	-3.598825357066481	-1.319915530416897	16.09577143346673	0	0.9399999999999999	0	38.71585819363789	-10.85392111658776	-10.17457892578161	52.3180790912942	0.9131227384618869	0	0	0	38.71585819363789	-10.85392111658776	-10.17457892578161	52.3180790912942	0.9131227384618869	0	0	0	-1.354059117552656	-2.551112771803695	5.611895896378556	46.19230874464301	-16.33080409945958	-11.66681192650846	60.46571309770151	111.1117533921868	0	0	25.74442532194652	-9.593790714337906	-12.61425152188551	45.66722691572361	120.9059184857306	0	0
22.05999999999962	-3.579905137688596	-1.282385537883151	15.8567227473436	0	0.9399999999999999	0	38.72103375169119	-10.85148228695037	-10.17425912224458	52.31955035558591	0.9131484168679441	0	0	0	38.72103375169119	-10.85148228695037	-10.17425912224458	52.31955035558591	0.9131484168679441	0	0	0	-1.323312759592494	-2.524858415384883	5.793810012807747	44.02112297237196	-16.9679335921051	-12.10309467545273	63.46966951090857	110.7227427405967	0	0	25.64777581989904	-9.537006958591304	-12.76481438395236	45.68806100984421	120.9644271805744	0	0
22.07999999999962	-3.573667646992343	-1.257467441072441	15.63222806593131	0	0.9399999999999999	0	38.72454250841879	-10.84983365613002	-10.17404266280774	52.32054917539249	0.913165849562203	0	0	0	38.72454250841879	-10.84983365613002	-10.17404266280774	52.32054917539249	0.913165849562203	0	0	0	-1.308072558420452	-2.507049314889545	5.94322918708321	41.77717814016033	-17.45950489548848	-12.65876304418803	65.76270406677529	110.3069543936216	0	0	25.56840827834012	-9.511968873572796	-12.89353153679754	45.73042588906348	121.0088224292953	0	0
22.09999999999962	-3.587868418823235	-1.218904550132476	15.420268962971	0	0.9399999999999999	0	38.72908611180658	-10.84770020059829	-10.17376241207449	52.32184174545532	0.9131884091656122	0	0	0	38.72908611180658	-10.84770020059829	-10.17376241207449	52.32184174545532	0.9131884091656122	0	0	0	-1.310101685793781	-2.468837187158517	6.088866360485383	39.60546439627347	-18.10016829001861	-12.93890149509486	68.6883125625461	109.978363664716	0	0	25.51781255592829	-9.454555368691423	-12.960754087854	45.7650297719995	120.9702852914157	0	0
22.11999999999962	-3.6029996898294	-1.19694615782051	15.21986346621479	0	0.9399999999999999	0	38.73342860816508	-10.84566524895644	-10.17349484134786	52.32307772950183	0.9132099811567259	0	0	0	38.73342860816508	-10.84566524895644	-10.17349484134786	52.32307772950183	0.9132099811567259	0	0	0	-1.318940437681693	-2.444250267599963	6.216932208380035	37.37173508758962	-18.72480130323432	-13.1051582897994	71.65087288926759	110.466429845677	0	0	25.47968394834742	-9.45327042057785	-12.98383820244778	45.81375110883509	120.9109215103548	0	0
